<svg width="30" height="31" viewBox="0 0 30 31" fill="none" xmlns="http://www.w3.org/2000/svg">
<g filter="url(#filter0_d_501_126)">
<path d="M12 22H18C23 22 25 20 25 15V9C25 4 23 2 18 2H12C7 2 5 4 5 9V15C5 20 7 22 12 22Z" stroke="#9197B3" stroke-width="1.5" stroke-linecap="round" stroke-linejoin="round"/>
<path d="M19.28 13.61C18.15 14.74 16.53 15.09 15.1 14.64L12.51 17.22C12.33 17.41 11.96 17.53 11.69 17.49L10.49 17.33C10.09 17.28 9.73001 16.9 9.67001 16.51L9.51001 15.31C9.47001 15.05 9.60001 14.68 9.78001 14.49L12.36 11.91C11.92 10.48 12.26 8.86001 13.39 7.73001C15.01 6.11001 17.65 6.11001 19.28 7.73001C20.9 9.34001 20.9 11.98 19.28 13.61Z" stroke="#9197B3" stroke-width="1.5" stroke-miterlimit="10" stroke-linecap="round" stroke-linejoin="round"/>
<path d="M13.45 16.28L12.6 15.42" stroke="#9197B3" stroke-width="1.5" stroke-miterlimit="10" stroke-linecap="round" stroke-linejoin="round"/>
<path d="M16.3945 10.7H16.4035" stroke="#9197B3" stroke-width="2" stroke-linecap="round" stroke-linejoin="round"/>
</g>
<defs>
<filter id="filter0_d_501_126" x="-1" y="0" width="32" height="32" filterUnits="userSpaceOnUse" color-interpolation-filters="sRGB">
<feFlood flood-opacity="0" result="BackgroundImageFix"/>
<feColorMatrix in="SourceAlpha" type="matrix" values="0 0 0 0 0 0 0 0 0 0 0 0 0 0 0 0 0 0 127 0" result="hardAlpha"/>
<feOffset dy="4"/>
<feGaussianBlur stdDeviation="2"/>
<feComposite in2="hardAlpha" operator="out"/>
<feColorMatrix type="matrix" values="0 0 0 0 0 0 0 0 0 0 0 0 0 0 0 0 0 0 0.25 0"/>
<feBlend mode="normal" in2="BackgroundImageFix" result="effect1_dropShadow_501_126"/>
<feBlend mode="normal" in="SourceGraphic" in2="effect1_dropShadow_501_126" result="shape"/>
</filter>
</defs>
</svg>
